inDegrees=no
num_controls=7
num_derivatives=13
num_iterations=100
num_multipliers=7
num_parameters=0
num_slacks=7
num_states=26
objective=0.454735
objective_accelerations=0.037076
objective_balance=0.007822
objective_effort=0.033072
objective_height=0.371568
objective_ligament=0.005198
solver_duration=1478.494426
status=Solve_Succeeded
success=true
DataType=double
version=3
OpenSimVersion=4.5
endheader
time	/jointset/ground_pelvis/pelvis_tilt/value	/jointset/ground_pelvis/pelvis_tx/value	/jointset/ground_pelvis/pelvis_ty/value	/jointset/hip_l/hip_flexion_l/value	/jointset/hip_l/hip_adduction_l/value	/jointset/hip_l/hip_rotation_l/value	/jointset/back/lumbar_extension/value	/jointset/patellofemoral_l/patellar_flexion_l/value	/jointset/knee_l/knee_flexion_l/value	/jointset/knee_l/knee_adduction_l/value	/jointset/knee_l/knee_rotation_l/value	/jointset/ankle_l/ankle_angle_l/value	/jointset/subtalar_l/subtalar_angle_l/value	/jointset/ground_pelvis/pelvis_tilt/speed	/jointset/ground_pelvis/pelvis_tx/speed	/jointset/ground_pelvis/pelvis_ty/speed	/jointset/hip_l/hip_flexion_l/speed	/jointset/hip_l/hip_adduction_l/speed	/jointset/hip_l/hip_rotation_l/speed	/jointset/back/lumbar_extension/speed	/jointset/patellofemoral_l/patellar_flexion_l/speed	/jointset/knee_l/knee_flexion_l/speed	/jointset/knee_l/knee_adduction_l/speed	/jointset/knee_l/knee_rotation_l/speed	/jointset/ankle_l/ankle_angle_l/speed	/jointset/subtalar_l/subtalar_angle_l/speed	/forceset/tau_hip_flexion_l	/forceset/tau_hip_adduction_l	/forceset/tau_hip_rotation_l	/forceset/tau_knee_flexion_l	/forceset/tau_ankle_angle_l	/forceset/tau_subtalar_angle_l	/forceset/tau_lumbar_extension	lambda_cid13_p0	lambda_cid13_p1	lambda_cid13_p2	lambda_cid13_p3	lambda_cid13_p4	lambda_cid13_p5	lambda_cid14_p0	/jointset/ground_pelvis/pelvis_tilt/accel	/jointset/ground_pelvis/pelvis_tx/accel	/jointset/ground_pelvis/pelvis_ty/accel	/jointset/hip_l/hip_flexion_l/accel	/jointset/hip_l/hip_adduction_l/accel	/jointset/hip_l/hip_rotation_l/accel	/jointset/back/lumbar_extension/accel	/jointset/patellofemoral_l/patellar_flexion_l/accel	/jointset/knee_l/knee_flexion_l/accel	/jointset/knee_l/knee_adduction_l/accel	/jointset/knee_l/knee_rotation_l/accel	/jointset/ankle_l/ankle_angle_l/accel	/jointset/subtalar_l/subtalar_angle_l/accel	gamma_cid13_p0	gamma_cid13_p1	gamma_cid13_p2	gamma_cid13_p3	gamma_cid13_p4	gamma_cid13_p5	gamma_cid14_p0
0	-0.1600919985445623	0.05854641507126534	0.8979963360781918	0.3774924667018715	-0.2591723237233752	-0.2723485296780126	-0.01265067647494873	0.03223648243721467	0.03223648243721463	-0.1745303009879089	0.1739338836832311	-0.04231377076293093	-0.009303995232590876	0	0	0	0	0	0	0	0	0	0	0	0	0	0.1554123282460612	-0.07475856987803035	-0.05457874567915235	-0.3252780724849343	0.3445681347261836	-0.05839797517950636	-0.09506657664119271	67.46687201468207	7.218683256305995	5.677789716767115	-14.62685843098931	-598.3503098517933	-65.12359170165929	-39.05537059418649	-4.055647056592165	-1.79129133287956	-0.926901849239113	10.47793077360425	-0.8766686751753519	2.355706889842001	-5.371387699091346	6.716296127498377	6.71629612751027	0.1783459650651732	-0.04171555783604076	0.3819120687447621	-0.8131297699379094	-4.08951661640373e-08	8.349217808089334e-08	3.809125636686779e-08	3.084086473802888e-08	-4.159597627517714e-08	-5.124073966644903e-08	-8.721973206193209e-10
0.01	-0.1602875952616218	0.05845552790266592	0.8979508602801003	0.3780046734357738	-0.2592164956352525	-0.2722322237116426	-0.0129200130073547	0.03256282289796918	0.03256282289796916	-0.174524486241935	0.1739300376690863	-0.04230056364826126	-0.009346327052186475	-0.03881250847789078	-0.01834175457387261	-0.009074181741280836	0.1020446408771314	-0.008833962034683687	0.02304464860721691	-0.05353619395237322	0.06481734292235872	0.06481734292238843	0.001023793566014483	-0.0007202914836360038	0.002216142764696805	-0.008562407862832423	0.1397508216251189	-0.08280704157551197	-0.05032614360902232	-0.297727624664017	0.2990283524079322	-0.03456258083578137	-0.08425670958902268	53.67579794012558	-0.4905355484445881	6.646674150001567	-4.136260115050602	-598.3566652587483	-78.62957331260053	-39.06444114821619	-3.74803108153796	-1.880259479570137	-0.8945379742097008	10.00822014685407	-0.8867216030843004	2.24636137474699	-5.295068363986108	6.296841164762937	6.29684116475996	0.04354560744429949	-0.07984800605312542	0.07766912858607559	-0.8922196485646907	-3.516493810802051e-08	6.291030071552244e-08	5.882673551165249e-08	1.969875642694183e-08	-7.041871080681223e-08	-4.382598723697219e-09	-8.601767346684468e-09
0.02	-0.1608621127310903	0.05817629479634197	0.8978152703370683	0.3795254244588645	-0.2593489994945705	-0.2718919677534834	-0.01371477810341952	0.03352381434597899	0.03352381434597898	-0.1745126036492864	0.17392045632762	-0.04227795435629385	-0.009477167621232158	-0.07578415048179353	-0.03766918754490713	-0.01802282898804709	0.2017088578377219	-0.01766638948812985	0.04478999835785202	-0.1050857127317697	0.1269301974510502	0.1269301974510501	0.001213569334902768	-0.00114706546430183	0.001880435459551026	-0.01770174989001611	0.1240893150041765	-0.0908555132729936	-0.04607354153889246	-0.2701771768430995	0.2534885700896772	-0.01072718649205637	-0.07344684253685266	39.94153880841677	-8.208058614725703	7.615007381383429	6.295909654100583	-597.4634430242276	-92.05715485373118	-39.09143418350374	-3.687473761794072	-1.988427012311944	-0.9017949503361961	10.00184599029605	-0.8763617589263976	2.095847118525641	-4.974052664495139	6.175398448764945	6.175398448764931	0.01154240562845282	0.01698794275799472	-0.1284579452237561	-0.9285166028081617	-2.943471005200373e-08	4.232842335015155e-08	7.956221465643721e-08	8.55664811585477e-09	-9.924144533844733e-08	4.247554221905459e-08	-1.633133737274961e-08
0.03	-0.1617986632403084	0.05770198532387111	0.8975908397640999	0.3820306115573978	-0.2595689698167373	-0.2713388109856986	-0.01501451952859604	0.03509524832754651	0.03509524832754661	-0.1745006133726975	0.1739072269692304	-0.0422657196999618	-0.009700140094513693	-0.1113426984005054	-0.05704270197286353	-0.02683620593503627	0.298855912049335	-0.02624847829852846	0.06582387014123793	-0.1545020905864651	0.1871696077748387	0.1871696077748383	0.001267980667047439	-0.001545183850572028	0.0007092000156627835	-0.02678166903548774	0.1199844801965925	-0.08544439372140776	-0.04573576379968694	-0.2682258426355156	0.2544915587492504	-0.01474140049343531	-0.06973465899425314	40.15365167708347	-6.609686767225019	7.483386600028926	4.929854053222178	-597.5958604565751	-88.20055027527442	-39.1356205511152	-3.462561287096377	-1.889311245269996	-0.8670670810361251	9.50023187133983	-0.8372550786840121	2.10452097440476	-4.871358088394817	5.920166958541888	5.920166958541837	0.01492499383954284	-0.07518173413220799	-0.09005144642411486	-0.8810837738097466	-4.58057708145185e-08	8.444033454147828e-08	8.814101569036581e-08	2.264178586168448e-08	-1.640322919651312e-07	4.776864090474201e-08	-1.566860670618659e-08
0.04	-0.1630853024247509	0.05703844118967419	0.8972790838188305	0.3854930885449965	-0.2598723855543257	-0.270575842746848	-0.01679761028080713	0.03726346733922319	0.03726346733922328	-0.1744855720834206	0.1738886224260155	-0.0422609164185592	-0.01001058259992855	-0.1458018855266819	-0.07551611989012111	-0.03548790344825964	0.3931668356507828	-0.03435547257242481	0.08675229257101159	-0.2017555781386831	0.2462872034728709	0.2462872034728703	0.001823771872474995	-0.002222102429349007	0.0003941604736642543	-0.03519575631668267	0.1158796453890085	-0.08003327416982189	-0.04539798606048208	-0.2662745084279317	0.2554945474088238	-0.01875561449481422	-0.0660224754516531	40.41741447577223	-5.019271380730991	7.351794167138585	3.514948005610964	-596.9209746017217	-84.27103181430107	-39.19597051582269	-3.467601603286947	-1.808407710172179	-0.8694590635830364	9.434619868262899	-0.7813428516259423	2.074757247803189	-4.541474603999663	5.951035523613704	5.951035523613744	0.1118183802850296	-0.03877209574331599	0.04278123515418494	-0.7953502299528211	-6.263252825370402e-08	1.278449011669637e-07	9.646916356736956e-08	3.724707301074959e-08	-2.295647491504758e-07	5.220472840987138e-08	-1.48328389119405e-08
0.05	-0.1647113115260317	0.05619414042269838	0.8968814363034467	0.3898848123255345	-0.2602547492630879	-0.2696056713316124	-0.01904215075610677	0.04001641179515855	0.04001641179515865	-0.1744634839427834	0.1738630428778628	-0.04225632093831445	-0.01040238101667978	-0.1792117548712133	-0.09324379846472541	-0.0440279494199905	0.4846820641987518	-0.0420710992017751	0.1071105572677602	-0.2467964544295597	0.3040043530899785	0.3040043530899788	0.002556813602756495	-0.002830235252354195	0.0005253915798625014	-0.04311672844266827	0.1094221830261612	-0.07794261920425355	-0.04440687768653465	-0.2604258283169905	0.2489880655386967	-0.01702712138276381	-0.06082337260695539	38.46859325761258	-5.445307362218691	7.438649138705791	3.998358677856334	-596.2375542875493	-84.12027178772242	-39.27140704796572	-3.249458097748039	-1.739905107624166	-0.8442762752008264	8.935585840912058	-0.7597624254321045	1.990633945942795	-4.431984767877045	5.637457446939842	5.637457446939938	0.04851757776277354	-0.06230867098503793	-0.001640762673143087	-0.7834214958616657	-7.040163747287822e-08	1.216766209913707e-07	1.13920786152462e-07	4.396121637164214e-08	-2.795135175136133e-07	5.099220839764974e-08	-1.83610641877358e-08
0.06	-0.1666657750203003	0.05517557143467261	0.8963987885460993	0.395176810690122	-0.2607128872095121	-0.2684370626963428	-0.02172641811956426	0.04333760830050115	0.04333760830050113	-0.1744351712831706	0.1738332870423987	-0.04225040010921286	-0.0108719793130789	-0.2114927641242176	-0.1103697641001146	-0.05248795184103026	0.5732217524606471	-0.0495103201048266	0.126439736577794	-0.2897009557702515	0.3599376133543081	0.3599376133543089	0.003068675667560417	-0.003057359891597338	0.0006592302450292161	-0.0507557322462633	0.1029647206633139	-0.07585196423868518	-0.04341576931258781	-0.2545771482060492	0.2424815836685695	-0.01529862827071338	-0.05562426976225767	36.56549298437906	-5.877042086497071	7.523778844277775	4.433642300664897	-594.8336078458351	-83.90018734403168	-39.36094629343663	-3.241829584981514	-1.688065122329163	-0.8534503534448176	8.839511811048153	-0.7260617063661807	1.868940170460355	-4.114199613962689	5.594257653058088	5.594257653058102	0.06758244718950168	0.03742954100896819	0.04330274694787677	-0.738956565474707	-7.778937203015721e-08	1.134210630557322e-07	1.31756555041053e-07	5.03431010467169e-08	-3.288061305579208e-07	4.954185227943436e-08	-2.207303654016441e-08
0.07000000000000001	-0.1689375615225153	0.05398870539547335	0.8958318226382446	0.4013401081789744	-0.2612437676383803	-0.2670804009347433	-0.02482947305096186	0.04721004382905006	0.04721004382905	-0.1744022166807491	0.1738035003520686	-0.04224276414625151	-0.01141621306406335	-0.2426550356803468	-0.1269048032775738	-0.06089760054846834	0.6589534321583868	-0.05659502660738804	0.1447244993560586	-0.3306326344330427	0.4142943004295787	0.4142943004295788	0.003537600256989197	-0.002828302147821551	0.0008927715081035997	-0.05801453874593929	0.09656566141507555	-0.07301956706330352	-0.04251464103189288	-0.249563889369353	0.2373491777287418	-0.014570029479799	-0.0505162780240144	35.05450185961971	-5.957407795562363	7.569143607638808	4.629719180583981	-593.5890472856863	-82.96504922803508	-39.46339401911411	-3.022005729666275	-1.621417100157413	-0.8336441108883019	8.3673376595749	-0.6890764695459671	1.783007541078394	-4.041042581002138	5.318099905478811	5.31809990547872	0.03887740813322199	0.02637696372917623	0.01709732844799753	-0.7079027633934076	-7.477852524701986e-08	9.725313978108027e-08	1.233127172022447e-07	5.130957029916087e-08	-3.554037678249977e-07	5.025497602819132e-08	-2.10276381660542e-08
0.08	-0.1715146866980392	0.05263945020755887	0.8951809758470164	0.4083461907868917	-0.261843375401743	-0.2655459389034474	-0.02833352288670033	0.05161839136249514	0.05161839136249508	-0.1743641068437707	0.1737781508537097	-0.04223204926816727	-0.01203074689428043	-0.2725604987859815	-0.1428475938431584	-0.06926412851570653	0.7417787762736473	-0.06325578700374303	0.1619997905170784	-0.3698999366384257	0.4671200143335402	0.4671200143335398	0.004099722578964203	-0.00216992149735572	0.001275013269609103	-0.06481574809278981	0.09016660216683725	-0.07018716988792185	-0.04161351275119801	-0.2445506305326566	0.2322167717889141	-0.01384143068888459	-0.04540828628577061	33.58377620564309	-6.042605200032011	7.612745168051516	4.780333135368883	-591.7127382626006	-81.96800994293129	-39.57757481091233	-2.990467894882589	-1.569615399954255	-0.8448262054048461	8.258244694552301	-0.6412724851248933	1.667045847011387	-3.781324322481042	5.288063018796292	5.288063018796286	0.08622199369874717	0.1232941223468129	0.07304284663409864	-0.6474371349096146	-7.109680224837177e-08	8.057474132326621e-08	1.131734208648946e-07	5.192665791143511e-08	-3.805372131064467e-07	5.110767912320456e-08	-1.967531264829631e-08
0.09	-0.1743855761889069	0.0511337706409819	0.8944464956808461	0.416166969437147	-0.2625078518758585	-0.2638427571664297	-0.03222080107484152	0.05654721303399726	0.0565472130339972	-0.1743206434201906	0.1737605527824395	-0.04221693232386608	-0.01271142976546052	-0.3014701164845069	-0.158182592347234	-0.07763690649946531	0.8219232924564824	-0.06961009902437321	0.1785789593858682	-0.4072025434701697	0.5183358883715593	0.5183358883715569	0.004519493315687287	-0.00139690577377833	0.001744175833162917	-0.07129298627717005	0.08349694794587965	-0.06769892509531807	-0.04071705513801132	-0.239988667637759	0.227688905327438	-0.01286037279724052	-0.04004986983941978	32.30073400591839	-6.256760405128493	7.661431437255898	4.788838060986086	-590.110110694538	-81.21020325474372	-39.70211488562624	-2.819118548394665	-1.499572611583042	-0.8343303756650613	7.824496135695982	-0.6281030625669792	1.644695243358973	-3.651755235573465	4.992088770212709	4.992088770212427	0.008852728033300596	0.0472061662531104	0.03321979973182453	-0.6437155300277905	-7.68654598510236e-08	7.920120562513137e-08	1.286892299054412e-07	5.681281770334661e-08	-3.997307884225605e-07	4.927472875874993e-08	-2.245006303437087e-08
